<?xml version="1.0" encoding="utf-8"?>
<!-- Generator: Adobe Illustrator 18.1.0, SVG Export Plug-In . SVG Version: 6.00 Build 0)  -->
<svg version="1.1" id="Layer_1" xmlns="http://www.w3.org/2000/svg" xmlns:xlink="http://www.w3.org/1999/xlink" x="0px" y="0px"
	 viewBox="0 0 612 171.8" enable-background="new 0 0 612 171.8" xml:space="preserve">
<g>
	<g>
		<path fill="#00B262" d="M327.1,125.4c-8.8,11.4-22.5,18.8-38,18.8c-25.6,0-46.5-20.1-47.9-45.3c-3.2-0.1-6.4-0.2-9.6-0.2
			c-2.8,0-5.5,0.1-8.2,0.2c-1.3,25.3-22.3,45.4-47.9,45.4c-15.8,0-29.8-7.6-38.5-19.4c-17.8,12.6-28.5,28.8-28.5,46.4
			c0,0.2,0,0.4,0,0.6h246.2c0-0.2,0-0.4,0-0.6C354.7,153.8,344.3,137.9,327.1,125.4z"/>
	</g>
	<g>
		<path fill="#00B262" d="M326.9,38.5L351.3,0c0,0-37.6,24.4-118.5,24.4C152.7,24.4,112.3,0,112.3,0l24.4,38.5
			c-14.9,11.9-24.4,30.2-24.4,50.7c0,6.7,1,13.1,2.9,19.2c4.9-38.1,31.1-67.3,62.7-67.3c22.4,0,42,14.6,53.3,36.6
			c11.3-22,31-36.6,53.3-36.6c32.3,0,59,30.5,63,70c2.5-6.8,3.8-14.2,3.8-21.9C351.3,68.7,341.8,50.4,326.9,38.5z"/>
	</g>
	<g>
		<path fill="#80C342" d="M246.6,102.6c-0.6,15.4-6.2,29.7-15.1,41.1c13.3,17,34,28,57.2,28c0.1,0,0.2,0,0.2,0v-30.1
			c-0.1,0-0.2,0-0.2,0C266.5,141.6,248.2,124.4,246.6,102.6z"/>
		<path fill="#80C342" d="M216.4,96.5c0.1,1,0.1,2,0.1,3h30c0-1,0-2,0.1-3c1.6-21.8,19.9-39.1,42.1-39.1c0.1,0,0.2,0,0.2,0V27.4
			c-0.1,0-0.2,0-0.2,0c-23.3,0-44,11-57.2,28c-13.3-17-34-28-57.2-28c-0.1,0-0.2,0-0.2,0v30.1c0.1,0,0.2,0,0.2,0
			C196.6,57.5,214.9,74.7,216.4,96.5z"/>
		<path fill="#80C342" d="M174.3,141.6c-0.1,0-0.2,0-0.2,0v30.1c0.1,0,0.2,0,0.2,0c23.3,0,44-11,57.2-28
			c-8.9-11.5-14.5-25.7-15.1-41.1C214.9,124.4,196.6,141.6,174.3,141.6z"/>
	</g>
	<g>
		<path fill="#00B262" d="M13.2,56.6h42.6v65.2c0,7-1.6,12.2-4.8,15.7c-3.2,3.5-7.1,5.2-11.6,5.2c-9.2,0-18-4.4-26.4-13.2L0.9,156.9
			c11.7,9.9,24.9,14.9,39.9,14.9c13.8,0,25.2-4.2,34-12.8c8.8-8.5,13.3-21.3,13.3-38.5V26.8H13.2V56.6z"/>
		<g>
			<path fill="#00B262" d="M216.5,99.6c0,1,0,2-0.1,3c0.6,15.4,6.2,29.6,15.1,41.1c8.9-11.5,14.5-25.7,15.1-41.1c-0.1-1-0.1-2-0.1-3
				H216.5z"/>
			<path fill="#00B262" d="M289,27.4v30.1c23.2,0.1,42,18.9,42,42.1c0,23.1-18.8,41.9-42,42.1v30.1c39.8-0.1,72.2-32.4,72.2-72.1
				C361.2,59.9,328.9,27.6,289,27.4z"/>
			<path fill="#00B262" d="M101.9,99.6c0,39.7,32.4,72,72.2,72.1v-30.1c-23.2-0.1-42-18.9-42-42.1c0-23.1,18.8-41.9,42-42.1V27.4
				C134.2,27.6,101.9,59.9,101.9,99.6z"/>
		</g>
		<circle fill="#00B262" cx="174" cy="99.9" r="15.1"/>
		<circle fill="#00B262" cx="289" cy="99.9" r="15.1"/>
		<path fill="#00B262" d="M374.4,171.2V27.4h32.1v115.2h61.3v28.6H374.4z"/>
		<path fill="#00B262" d="M576.7,171.2l-13.4-28.8h-60.3l-13.4,28.8h-34.1l62.1-143.7h31.1l62.1,143.7H576.7z M533.3,70.2l-18.1,44
			h36L533.3,70.2z"/>
	</g>
</g>
</svg>
