<?xml version="1.0" encoding="utf-8"?>
<!-- Generator: Adobe Illustrator 18.1.0, SVG Export Plug-In . SVG Version: 6.00 Build 0)  -->
<svg version="1.1" id="Layer_1" xmlns="http://www.w3.org/2000/svg" xmlns:xlink="http://www.w3.org/1999/xlink" x="0px" y="0px"
	 viewBox="0 0 255.2 170.5" enable-background="new 0 0 255.2 170.5" xml:space="preserve">
<g>
	<path display="none" fill="#FFFFFF" d="M-87.2,57.2h41.9v64.1c0,6.9-1.6,12-4.8,15.5c-3.2,3.4-7,5.2-11.4,5.2c-9,0-17.7-4.3-26-13
		l-11.9,26.8c11.5,9.8,24.5,14.7,39.2,14.7c13.6,0,24.8-4.2,33.5-12.5c8.7-8.4,13-21,13-37.8V27.9h-73.6V57.2z"/>
	<path fill="#FFFFFF" d="M220.5,38.6h1.5l23.5-37.1c0,0-37,24-116.6,24c-78.9,0-118.6-24-118.6-24l23.5,37.1h0.9
		C13.9,51,0,73.6,0,99.4c0,16.5,5.7,31.7,15.2,43.8c-5.7,8.3-8.8,17.3-8.8,26.7c0,0.2,0,0.4,0,0.6h242.3c0-0.2,0-0.4,0-0.6
		c0-9.4-3.1-18.5-8.8-26.7c9.5-12.1,15.2-27.3,15.2-43.8C255.2,73.6,241.2,51,220.5,38.6z M74.5,32.4c19.8,0.9,38,10.3,50.3,26.1
		l2.8,3.6l2.8-3.6c12.3-15.8,30.4-25.2,50.3-26.1v22.6c-22,1.6-39.9,19.1-41.7,41.3h-22.8c-1.7-22.1-19.7-39.7-41.7-41.3V32.4z
		 M71,140.8L71,140.8c-22.8-0.1-41.3-18.6-41.3-41.4C29.7,76.7,48.2,58.2,71,58c0.1,0,0.2,0,0.2,0c21.9,0,39.9,17,41.5,38.4
		c0.1,1,0.1,2,0.1,3c0,1,0,2-0.1,3c-1.5,21.4-19.5,38.4-41.5,38.4C71.2,140.8,71.1,140.8,71,140.8z M74.5,167.1v-22.6
		c16.2-1.2,30.3-11.1,37.2-25.1c2.3,8.4,6.1,16.4,11.3,23.6C110.9,157.6,93.4,166.2,74.5,167.1z M180.6,167.1
		c-18.9-0.9-36.3-9.5-48.6-24c5.2-7.2,9-15.2,11.3-23.6c6.9,14,21,23.9,37.2,25.1V167.1z M184.1,140.8L184.1,140.8
		c-0.1,0-0.2,0-0.2,0c-21.9,0-39.9-17-41.4-38.4c-0.1-1-0.1-2-0.1-3c0-1,0-2,0.1-3C144,75,162,58,183.9,58c0.1,0,0.2,0,0.2,0
		c22.8,0.1,41.3,18.6,41.3,41.4C225.5,122.2,207,140.7,184.1,140.8z"/>
	<path fill="#FFFFFF" d="M71,84.9c-8.2,0-14.8,6.6-14.8,14.8c0,8.2,6.6,14.8,14.8,14.8c8.2,0,14.8-6.6,14.8-14.8
		C85.9,91.5,79.2,84.9,71,84.9z"/>
	<path fill="#FFFFFF" d="M184.1,84.9c-8.2,0-14.8,6.6-14.8,14.8c0,8.2,6.6,14.8,14.8,14.8c8.2,0,14.8-6.6,14.8-14.8
		C199,91.5,192.3,84.9,184.1,84.9z"/>
	<path display="none" fill="#FFFFFF" d="M439.6,28.5h-30.6L360,142v-0.2h-60.3V28.5h-31.6v141.4H348h12h21.5l13.2-28.3H454
		l13.2,28.3h33.6L439.6,28.5z M406.7,113.9l17.8-43.3l17.6,43.3H406.7z"/>
</g>
</svg>
