<?xml version="1.0" encoding="utf-8"?>
<!-- Generator: Adobe Illustrator 18.1.0, SVG Export Plug-In . SVG Version: 6.00 Build 0)  -->
<svg version="1.1" id="Layer_1" xmlns="http://www.w3.org/2000/svg" xmlns:xlink="http://www.w3.org/1999/xlink" x="0px" y="0px"
	 viewBox="0 0 612 173.7" enable-background="new 0 0 612 173.7" xml:space="preserve">
<g>
	<path fill="#FFFFFF" d="M16.6,59.8h42.1v64.5c0,6.9-1.6,12.1-4.8,15.6c-3.2,3.5-7,5.2-11.5,5.2c-9.1,0-17.8-4.4-26.1-13l-11.9,27
		c11.5,9.8,24.7,14.7,39.4,14.7c13.7,0,24.9-4.2,33.7-12.6c8.7-8.4,13.1-21.1,13.1-38V30.3h-74V59.8z"/>
	<path fill="#FFFFFF" d="M325.9,41h1.5L351,3.8c0,0-37.2,24.1-117.2,24.1c-79.3,0-119.2-24.1-119.2-24.1L138.2,41h0.9
		c-20.9,12.5-34.9,35.2-34.9,61.2c0,16.6,5.7,31.9,15.3,44c-5.7,8.3-8.8,17.3-8.8,26.8c0,0.2,0,0.4,0,0.6h243.5c0-0.2,0-0.4,0-0.6
		c0-9.5-3.2-18.6-8.8-26.8c9.6-12.1,15.3-27.4,15.3-44C360.7,76.3,346.7,53.5,325.9,41z M179.2,34.8c19.9,0.9,38.2,10.4,50.5,26.2
		l2.8,3.6l2.8-3.6c12.3-15.8,30.6-25.3,50.5-26.2v22.7c-22.1,1.6-40.1,19.2-41.9,41.5h-22.9c-1.7-22.3-19.8-39.9-41.9-41.5V34.8z
		 M175.6,143.8L175.6,143.8c-22.9-0.1-41.5-18.7-41.5-41.6c0-22.9,18.6-41.5,41.5-41.6c0.1,0,0.2,0,0.2,0c22,0,40.1,17.1,41.7,38.6
		c0.1,1,0.1,2,0.1,3c0,1,0,2-0.1,3c-1.5,21.6-19.6,38.6-41.7,38.6C175.8,143.8,175.7,143.8,175.6,143.8z M179.2,170.2v-22.7
		c16.3-1.2,30.5-11.1,37.4-25.2c2.3,8.5,6.2,16.5,11.4,23.8C215.7,160.7,198.2,169.3,179.2,170.2z M285.8,170.2
		c-19-0.9-36.5-9.6-48.8-24.1c5.2-7.3,9.1-15.3,11.4-23.8c7,14.1,21.1,24,37.4,25.2V170.2z M289.4,143.8L289.4,143.8
		c-0.1,0-0.2,0-0.2,0c-22,0-40.1-17.1-41.7-38.6c-0.1-1-0.1-2-0.1-3c0-1,0-2,0.1-3c1.5-21.6,19.6-38.6,41.7-38.6c0.1,0,0.2,0,0.2,0
		c22.9,0.1,41.5,18.7,41.5,41.6C330.9,125.1,312.3,143.7,289.4,143.8z"/>
	<path fill="#FFFFFF" d="M175.6,87.6c-8.2,0-14.9,6.7-14.9,14.9c0,8.2,6.7,14.9,14.9,14.9c8.2,0,14.9-6.7,14.9-14.9
		C190.6,94.3,183.9,87.6,175.6,87.6z"/>
	<path fill="#FFFFFF" d="M289.4,87.6c-8.2,0-14.9,6.7-14.9,14.9c0,8.2,6.7,14.9,14.9,14.9c8.2,0,14.9-6.7,14.9-14.9
		C304.3,94.3,297.6,87.6,289.4,87.6z"/>
	<path fill="#FFFFFF" d="M546.2,30.9h-30.7L466.1,145v-0.2h-60.6V30.9h-31.7v142.2H454h12.1h21.6l13.2-28.5h59.6l13.2,28.5h33.8
		L546.2,30.9z M513,116.7l17.9-43.5l17.7,43.5H513z"/>
</g>
</svg>
