<?xml version="1.0" encoding="utf-8"?>
<!-- Generator: Adobe Illustrator 18.1.0, SVG Export Plug-In . SVG Version: 6.00 Build 0)  -->
<svg version="1.1" id="Layer_1" xmlns="http://www.w3.org/2000/svg" xmlns:xlink="http://www.w3.org/1999/xlink" x="0px" y="0px"
	 viewBox="0 0 260.1 172.3" enable-background="new 0 0 260.1 172.3" xml:space="preserve">
<g>
	<g>
		<path fill="#F26522" d="M225.9,125.8c-8.8,11.4-22.6,18.8-38.2,18.8c-25.7,0-46.7-20.1-48-45.5c-3.2-0.1-6.4-0.2-9.6-0.2
			c-2.8,0-5.5,0.1-8.2,0.2c-1.3,25.4-22.3,45.5-48,45.5c-15.8,0-29.9-7.7-38.7-19.5C17.3,137.7,6.6,154,6.6,171.7c0,0.2,0,0.4,0,0.6
			h247c0-0.2,0-0.4,0-0.6C253.5,154.3,243.2,138.3,225.9,125.8z"/>
	</g>
	<g>
		<path fill="#F26522" d="M225.7,38.6L250.2,0c0,0-37.7,24.5-118.8,24.5C51,24.5,10.5,0,10.5,0L35,38.6
			C20.1,50.5,10.5,68.9,10.5,89.5c0,6.7,1,13.2,2.9,19.3c4.9-38.3,31.2-67.5,62.9-67.5c22.4,0,42.1,14.6,53.5,36.7
			c11.4-22.1,31.1-36.7,53.5-36.7c32.4,0,59.2,30.6,63.2,70.2c2.5-6.9,3.8-14.3,3.8-22C250.2,68.9,240.6,50.5,225.7,38.6z"/>
	</g>
	<g>
		<path fill="#F99D1C" d="M145.2,102.9c-0.6,15.5-6.2,29.7-15.2,41.2c13.3,17.1,34.1,28.1,57.4,28.1c0.1,0,0.2,0,0.2,0V142
			c-0.1,0-0.2,0-0.2,0C165.1,142,146.8,124.7,145.2,102.9z"/>
		<path fill="#F99D1C" d="M114.9,96.8c0.1,1,0.1,2,0.1,3h30.1c0-1,0-2,0.1-3c1.6-21.9,19.9-39.2,42.3-39.2c0.1,0,0.2,0,0.2,0V27.5
			c-0.1,0-0.2,0-0.2,0c-23.3,0-44.1,11-57.4,28.1C116.8,38.5,96,27.5,72.6,27.5c-0.1,0-0.2,0-0.2,0v30.1c0.1,0,0.2,0,0.2,0
			C95,57.7,113.3,75,114.9,96.8z"/>
		<path fill="#F99D1C" d="M72.6,142c-0.1,0-0.2,0-0.2,0v30.1c0.1,0,0.2,0,0.2,0c23.3,0,44.1-11,57.4-28.1
			c-9-11.5-14.5-25.7-15.2-41.2C113.3,124.7,95,142,72.6,142z"/>
	</g>
	<g>
		<path display="none" fill="#F26522" d="M-88.9,56.8h42.7v65.4c0,7-1.6,12.3-4.8,15.8c-3.2,3.5-7.1,5.3-11.7,5.3
			c-9.2,0-18-4.4-26.5-13.2l-12.1,27.3c11.7,10,25,15,40,15c13.9,0,25.3-4.3,34.1-12.8c8.9-8.5,13.3-21.4,13.3-38.6v-94h-75.1V56.8z
			"/>
		<g>
			<path fill="#F26522" d="M115,99.8c0,1,0,2-0.1,3c0.6,15.5,6.2,29.7,15.2,41.2c9-11.5,14.5-25.7,15.2-41.2c-0.1-1-0.1-2-0.1-3H115
				z"/>
			<path fill="#F26522" d="M187.7,27.5v30.1c23.3,0.1,42.1,19,42.1,42.2c0,23.2-18.9,42.1-42.1,42.2v30.1
				c39.9-0.1,72.4-32.5,72.4-72.3C260.1,60,227.7,27.7,187.7,27.5z"/>
			<path fill="#F26522" d="M0,99.8c0,39.8,32.5,72.2,72.4,72.3V142c-23.2-0.1-42.1-19-42.1-42.2c0-23.2,18.9-42.1,42.1-42.2V27.5
				C32.5,27.7,0,60,0,99.8z"/>
		</g>
		<circle fill="#F26522" cx="72.4" cy="100.2" r="15.1"/>
		<circle fill="#F26522" cx="187.7" cy="100.2" r="15.1"/>
		<path display="none" fill="#F26522" d="M273.4,171.7V27.5h32.2V143H367v28.7H273.4z"/>
		<path display="none" fill="#F26522" d="M476.2,171.7l-13.4-28.9h-60.4L389,171.7h-34.2L417,27.5h31.1l62.3,144.2H476.2z
			 M432.7,70.4l-18.2,44.1h36.1L432.7,70.4z"/>
	</g>
</g>
</svg>
