<?xml version="1.0" encoding="utf-8"?>
<!-- Generator: Adobe Illustrator 18.1.0, SVG Export Plug-In . SVG Version: 6.00 Build 0)  -->
<svg version="1.1" id="Layer_1" xmlns="http://www.w3.org/2000/svg" xmlns:xlink="http://www.w3.org/1999/xlink" x="0px" y="0px"
	 viewBox="0 0 612 171.9" enable-background="new 0 0 612 171.9" xml:space="preserve">
<g>
	<path d="M14,56.7h42.6v65.2c0,7-1.6,12.2-4.8,15.7c-3.2,3.5-7.1,5.2-11.6,5.2c-9.2,0-18-4.4-26.4-13.2L1.7,157
		c11.7,9.9,25,14.9,39.9,14.9c13.9,0,25.2-4.3,34.1-12.8c8.8-8.5,13.3-21.3,13.3-38.5V26.8H14V56.7z"/>
	<path d="M326.9,37.7h1.5L352.4,0c0,0-37.7,24.4-118.5,24.4C153.6,24.4,113.2,0,113.2,0l23.9,37.7h0.9
		c-21.1,12.6-35.3,35.6-35.3,61.9c0,16.8,5.8,32.2,15.5,44.5c-5.8,8.4-8.9,17.6-8.9,27.2c0,0.2,0,0.4,0,0.6h246.4c0-0.2,0-0.4,0-0.6
		c0-9.6-3.2-18.8-9-27.2c9.7-12.3,15.5-27.7,15.5-44.5C362.2,73.4,348.1,50.3,326.9,37.7z M178.5,31.4c20.1,1,38.6,10.5,51.1,26.5
		l2.8,3.6l2.8-3.6c12.5-16,31-25.6,51.1-26.5v22.9c-22.3,1.6-40.6,19.5-42.4,42h-23.1c-1.8-22.5-20-40.3-42.4-42V31.4z M175,141.7
		L175,141.7c-23.2-0.1-42-19-42-42.1c0-23.1,18.8-42,42-42.1c0.1,0,0.2,0,0.2,0c22.3,0,40.6,17.3,42.2,39.1c0.1,1,0.1,2,0.1,3
		c0,1,0,2-0.1,3c-1.6,21.8-19.9,39.1-42.2,39.1C175.1,141.7,175,141.7,175,141.7z M178.5,168.4v-22.9c16.5-1.2,30.8-11.3,37.9-25.5
		c2.4,8.6,6.2,16.7,11.5,24C215.5,158.8,197.8,167.5,178.5,168.4z M286.4,168.4c-19.2-0.9-37-9.7-49.4-24.4
		c5.3-7.3,9.2-15.5,11.5-24c7,14.3,21.3,24.3,37.9,25.5V168.4z M290,141.7L290,141.7c-0.1,0-0.2,0-0.2,0
		c-22.3,0-40.6-17.3-42.2-39.1c-0.1-1-0.1-2-0.1-3c0-1,0-2,0.1-3c1.6-21.8,19.9-39.1,42.2-39.1c0.1,0,0.2,0,0.2,0
		c23.2,0.1,42,19,42,42.1C332,122.7,313.2,141.6,290,141.7z"/>
	<path d="M175,84.8c-8.3,0-15.1,6.8-15.1,15.1c0,8.3,6.8,15.1,15.1,15.1c8.3,0,15.1-6.8,15.1-15.1C190.1,91.6,183.3,84.8,175,84.8z"
		/>
	<path d="M290,84.8c-8.3,0-15.1,6.8-15.1,15.1c0,8.3,6.8,15.1,15.1,15.1c8.3,0,15.1-6.8,15.1-15.1C305.1,91.6,298.4,84.8,290,84.8z"
		/>
	<path d="M549.9,27.5h-31.1l-49.9,115.5v-0.2h-61.3V27.5h-32.1v143.8h81.2h12.3h21.9l13.4-28.8h60.3l13.4,28.8H612L549.9,27.5z
		 M516.3,114.3l18.1-44l17.9,44H516.3z"/>
</g>
</svg>
