<?xml version="1.0" encoding="utf-8"?>
<!-- Generator: Adobe Illustrator 18.1.0, SVG Export Plug-In . SVG Version: 6.00 Build 0)  -->
<svg version="1.1" id="Layer_1" xmlns="http://www.w3.org/2000/svg" xmlns:xlink="http://www.w3.org/1999/xlink" x="0px" y="0px"
	 viewBox="0 0 260.8 174.4" enable-background="new 0 0 260.8 174.4" xml:space="preserve">
<g>
	<path display="none" d="M-89.3,58.3h42.9V124c0,7-1.6,12.3-4.9,15.9c-3.2,3.5-7.2,5.3-11.7,5.3c-9.2,0-18.1-4.4-26.6-13.3
		l-12.1,27.5c11.7,10,25.1,15,40.2,15c14,0,25.4-4.3,34.3-12.8c8.9-8.6,13.4-21.5,13.4-38.8V28.3h-75.4V58.3z"/>
	<path d="M225.8,39.2h1.5l24.1-38c0,0-37.9,24.6-119.4,24.6C51.3,25.9,10.5,1.3,10.5,1.3l24.1,38h0.9C14.3,52,0,75.1,0,101.6
		c0,16.9,5.8,32.5,15.6,44.8c-5.8,8.5-9,17.7-9,27.4c0,0.2,0,0.4,0,0.6h248.1c0-0.2,0-0.4,0-0.6c0-9.7-3.2-18.9-9-27.4
		c9.8-12.4,15.6-27.9,15.6-44.8C261.3,75.1,247.1,52,225.8,39.2z M76.3,32.9c20.3,1,38.9,10.6,51.5,26.7l2.9,3.7l2.8-3.7
		c12.6-16.1,31.2-25.8,51.5-26.7V56c-22.5,1.6-40.9,19.6-42.7,42.3H119C117.2,75.6,98.8,57.7,76.3,56V32.9z M72.7,144L72.7,144
		c-23.4-0.1-42.3-19.1-42.3-42.4c0-23.3,19-42.3,42.3-42.4c0.1,0,0.2,0,0.2,0c22.4,0,40.9,17.4,42.5,39.4c0.1,1,0.1,2,0.1,3
		c0,1,0,2-0.1,3c-1.6,22-20,39.4-42.5,39.4C72.9,144,72.8,144,72.7,144z M76.3,170.9v-23.1c16.6-1.2,31-11.3,38.1-25.7
		c2.4,8.6,6.3,16.8,11.6,24.2C113.6,161.1,95.7,170,76.3,170.9z M185,170.9c-19.4-0.9-37.2-9.7-49.7-24.6
		c5.3-7.4,9.2-15.6,11.6-24.2c7.1,14.4,21.5,24.5,38.1,25.7V170.9z M188.6,144L188.6,144c-0.1,0-0.2,0-0.3,0
		c-22.4,0-40.9-17.4-42.5-39.4c-0.1-1-0.1-2-0.1-3c0-1,0-2,0.1-3c1.6-22,20-39.4,42.5-39.4c0.1,0,0.2,0,0.3,0
		c23.4,0.1,42.3,19.1,42.3,42.4C230.9,124.9,212,143.8,188.6,144z"/>
	<path d="M72.7,86.7c-8.4,0-15.2,6.8-15.2,15.2c0,8.4,6.8,15.2,15.2,15.2c8.4,0,15.2-6.8,15.2-15.2C87.9,93.5,81.1,86.7,72.7,86.7z"
		/>
	<path d="M188.6,86.7c-8.4,0-15.2,6.8-15.2,15.2c0,8.4,6.8,15.2,15.2,15.2c8.4,0,15.2-6.8,15.2-15.2C203.8,93.5,197,86.7,188.6,86.7
		z"/>
	<path display="none" d="M450.3,28.9H419l-50.2,116.3V145H307v-116h-32.3v144.8h81.7h12.3h22.1l13.5-29H465l13.5,29h34.4L450.3,28.9
		z M416.5,116.4L434.7,72l18,44.3H416.5z"/>
</g>
</svg>
