<?xml version="1.0" encoding="utf-8"?>
<!-- Generator: Adobe Illustrator 18.1.0, SVG Export Plug-In . SVG Version: 6.00 Build 0)  -->
<svg version="1.1" id="Layer_1" xmlns="http://www.w3.org/2000/svg" xmlns:xlink="http://www.w3.org/1999/xlink" x="0px" y="0px"
	 viewBox="0 0 612 172.3" enable-background="new 0 0 612 172.3" xml:space="preserve">
<g>
	<g>
		<path fill="#6E79E0" d="M327.3,125.8c-8.8,11.4-22.6,18.8-38.2,18.8c-25.7,0-46.7-20.1-48-45.5c-3.2-0.1-6.4-0.2-9.6-0.2
			c-2.8,0-5.5,0.1-8.2,0.2c-1.3,25.4-22.3,45.5-48,45.5c-15.8,0-29.9-7.7-38.6-19.5C118.7,137.7,108,154,108,171.7
			c0,0.2,0,0.4,0,0.6h246.9c0-0.2,0-0.4,0-0.6C355,154.3,344.6,138.3,327.3,125.8z"/>
	</g>
	<g>
		<path fill="#6E79E0" d="M327.1,38.6L351.6,0c0,0-37.7,24.5-118.8,24.5C152.4,24.5,111.9,0,111.9,0l24.5,38.6
			c-14.9,11.9-24.5,30.3-24.5,50.8c0,6.7,1,13.2,2.9,19.3c4.9-38.3,31.2-67.5,62.9-67.5c22.4,0,42.1,14.6,53.5,36.7
			c11.4-22.1,31.1-36.7,53.5-36.7c32.4,0,59.2,30.6,63.2,70.2c2.5-6.9,3.8-14.3,3.8-22C351.6,68.9,342.1,50.5,327.1,38.6z"/>
	</g>
	<g>
		<path fill="#7ED3FC" d="M246.6,102.9c-0.6,15.5-6.2,29.7-15.2,41.2c13.3,17.1,34.1,28.1,57.4,28.1c0.1,0,0.2,0,0.2,0V142
			c-0.1,0-0.2,0-0.2,0C266.5,142,248.2,124.7,246.6,102.9z"/>
		<path fill="#7ED3FC" d="M216.3,96.8c0.1,1,0.1,2,0.1,3h30.1c0-1,0-2,0.1-3c1.6-21.9,19.9-39.2,42.3-39.2c0.1,0,0.2,0,0.2,0V27.5
			c-0.1,0-0.2,0-0.2,0c-23.3,0-44.1,11-57.4,28.1c-13.3-17.1-34.1-28.1-57.4-28.1c-0.1,0-0.2,0-0.2,0v30.1c0.1,0,0.2,0,0.2,0
			C196.4,57.6,214.7,75,216.3,96.8z"/>
		<path fill="#7ED3FC" d="M174.1,142c-0.1,0-0.2,0-0.2,0v30.1c0.1,0,0.2,0,0.2,0c23.3,0,44.1-11,57.4-28.1
			c-9-11.5-14.5-25.7-15.2-41.2C214.7,124.7,196.4,142,174.1,142z"/>
	</g>
	<g>
		<path fill="#6E79E0" d="M12.5,56.8h42.7v65.4c0,7-1.6,12.3-4.8,15.8c-3.2,3.5-7.1,5.3-11.7,5.3c-9.2,0-18-4.4-26.5-13.2L0.2,157.3
			c11.7,10,25,15,40,15c13.9,0,25.3-4.3,34.1-12.8c8.9-8.5,13.3-21.4,13.3-38.6v-94H12.5V56.8z"/>
		<g>
			<path fill="#6E79E0" d="M216.4,99.8c0,1,0,2-0.1,3c0.6,15.5,6.2,29.7,15.2,41.2c9-11.5,14.5-25.7,15.2-41.2c-0.1-1-0.1-2-0.1-3
				H216.4z"/>
			<path fill="#6E79E0" d="M289.1,27.5v30.1c23.3,0.1,42.1,19,42.1,42.2c0,23.2-18.9,42.1-42.1,42.2v30.1
				c39.9-0.1,72.4-32.5,72.4-72.3C361.5,60,329.1,27.7,289.1,27.5z"/>
			<path fill="#6E79E0" d="M101.4,99.8c0,39.8,32.4,72.2,72.4,72.3V142c-23.2-0.1-42.1-19-42.1-42.2c0-23.2,18.9-42,42.1-42.2V27.5
				C133.9,27.7,101.4,60,101.4,99.8z"/>
		</g>
		<circle fill="#6E79E0" cx="173.8" cy="100.1" r="15.1"/>
		<path fill="#6E79E0" d="M289.1,85c-8.4,0-15.1,6.8-15.1,15.1c0,8.4,6.8,15.1,15.1,15.1c8.4,0,15.1-6.8,15.1-15.1
			C304.3,91.8,297.5,85,289.1,85z"/>
		<path fill="#6E79E0" d="M374.8,171.7V27.5h32.2V143h61.5v28.7H374.8z"/>
		<path fill="#6E79E0" d="M577.6,171.7l-13.4-28.9h-60.4l-13.4,28.9h-34.2l62.3-144.2h31.1l62.3,144.2H577.6z M534.1,70.4
			l-18.2,44.1H552L534.1,70.4z"/>
	</g>
</g>
</svg>
