<?xml version="1.0" encoding="utf-8"?>
<!-- Generator: Adobe Illustrator 18.1.0, SVG Export Plug-In . SVG Version: 6.00 Build 0)  -->
<svg version="1.1" id="Layer_1" xmlns="http://www.w3.org/2000/svg" xmlns:xlink="http://www.w3.org/1999/xlink" x="0px" y="0px"
	 viewBox="0 0 257.5 170" enable-background="new 0 0 257.5 170" xml:space="preserve">
<g>
	<g>
		<path fill="#009BDF" d="M223.6,124.5c-8.7,11.3-22.4,18.6-37.8,18.6c-25.4,0-46.2-19.9-47.5-45c-3.2-0.1-6.3-0.2-9.6-0.2
			c-2.7,0-5.5,0.1-8.2,0.2c-1.3,25.1-22.1,45.1-47.5,45.1c-15.7,0-29.6-7.6-38.3-19.3C17.1,136.4,6.5,152.4,6.5,170
			c0,0.2,0,0.4,0,0.6H251c0-0.2,0-0.4,0-0.6C251,152.7,240.7,136.9,223.6,124.5z"/>
	</g>
	<g>
		<path fill="#009BDF" d="M223.5,38.2L247.7,0c0,0-37.4,24.2-117.6,24.2C50.5,24.2,10.4,0,10.4,0l24.3,38.2
			C19.9,50,10.4,68.2,10.4,88.6c0,6.6,1,13,2.9,19.1c4.9-37.9,30.9-66.8,62.2-66.8c22.2,0,41.7,14.5,53,36.4
			c11.2-21.9,30.8-36.4,53-36.4c32.1,0,58.6,30.3,62.6,69.5c2.4-6.8,3.8-14.1,3.8-21.8C247.7,68.2,238.3,50,223.5,38.2z"/>
	</g>
	<g>
		<path fill="#20C4F4" d="M143.8,101.8c-0.6,15.3-6.1,29.4-15,40.8c13.2,16.9,33.8,27.8,56.8,27.8c0.1,0,0.2,0,0.2,0v-29.8
			c-0.1,0-0.2,0-0.2,0C163.5,140.6,145.3,123.5,143.8,101.8z"/>
		<path fill="#20C4F4" d="M113.8,95.9c0.1,1,0.1,2,0.1,3h29.8c0-1,0-2,0.1-3c1.6-21.6,19.7-38.8,41.8-38.8c0.1,0,0.2,0,0.2,0V27.2
			c-0.1,0-0.2,0-0.2,0c-23.1,0-43.7,10.9-56.8,27.8C115.6,38.1,95,27.2,71.9,27.2c-0.1,0-0.2,0-0.2,0v29.8c0.1,0,0.2,0,0.2,0
			C94,57.1,112.2,74.2,113.8,95.9z"/>
		<path fill="#20C4F4" d="M71.9,140.6c-0.1,0-0.2,0-0.2,0v29.8c0.1,0,0.2,0,0.2,0c23.1,0,43.7-10.9,56.8-27.8
			c-8.9-11.4-14.4-25.5-15-40.8C112.2,123.5,94,140.6,71.9,140.6z"/>
	</g>
	<g>
		<path display="none" fill="#009BDF" d="M-88,56.2h42.3V121c0,6.9-1.6,12.1-4.8,15.6c-3.2,3.5-7,5.2-11.5,5.2
			c-9.1,0-17.8-4.4-26.2-13.1l-12,27.1c11.6,9.9,24.8,14.8,39.6,14.8c13.7,0,25-4.2,33.8-12.7c8.8-8.4,13.2-21.2,13.2-38.2V26.6H-88
			V56.2z"/>
		<g>
			<path fill="#009BDF" d="M113.9,98.9c0,1,0,2-0.1,3c0.6,15.3,6.1,29.4,15,40.8c8.9-11.4,14.4-25.5,15-40.8c-0.1-1-0.1-2-0.1-3
				H113.9z"/>
			<path fill="#009BDF" d="M185.8,27.2v29.8c23,0.1,41.7,18.8,41.7,41.8c0,23-18.7,41.6-41.7,41.8v29.8
				c39.5-0.1,71.7-32.2,71.7-71.6C257.5,59.5,225.4,27.4,185.8,27.2z"/>
			<path fill="#009BDF" d="M0,98.9c0,39.4,32.1,71.5,71.7,71.6v-29.8c-23-0.1-41.7-18.8-41.7-41.8c0-22.9,18.7-41.6,41.7-41.8V27.2
				C32.1,27.4,0,59.5,0,98.9z"/>
		</g>
		<circle fill="#009BDF" cx="71.7" cy="99.2" r="15"/>
		<circle fill="#009BDF" cx="185.8" cy="99.2" r="15"/>
		<path display="none" fill="#009BDF" d="M270.6,170V27.2h31.9v114.4h60.9V170H270.6z"/>
		<path display="none" fill="#009BDF" d="M471.5,170l-13.3-28.6h-59.8L385.1,170h-33.9l61.7-142.7h30.8L505.4,170H471.5z
			 M428.4,69.7l-18,43.7h35.7L428.4,69.7z"/>
	</g>
</g>
</svg>
