<?xml version="1.0" encoding="utf-8"?>
<!-- Generator: Adobe Illustrator 18.1.0, SVG Export Plug-In . SVG Version: 6.00 Build 0)  -->
<svg version="1.1" id="Layer_1" xmlns="http://www.w3.org/2000/svg" xmlns:xlink="http://www.w3.org/1999/xlink" x="0px" y="0px"
	 viewBox="0 0 612 170" enable-background="new 0 0 612 170" xml:space="preserve">
<g>
	<g>
		<path fill="#009BDF" d="M327.1,124.5c-8.7,11.3-22.4,18.6-37.8,18.6c-25.4,0-46.2-19.9-47.5-45c-3.2-0.1-6.3-0.2-9.6-0.2
			c-2.7,0-5.5,0.1-8.2,0.2c-1.3,25.1-22.1,45.1-47.5,45.1c-15.7,0-29.6-7.6-38.3-19.3c-17.7,12.5-28.3,28.6-28.3,46.1
			c0,0.2,0,0.4,0,0.6h244.5c0-0.2,0-0.4,0-0.6C354.5,152.7,344.2,136.9,327.1,124.5z"/>
	</g>
	<g>
		<path fill="#009BDF" d="M326.9,38.2L351.2,0c0,0-37.4,24.2-117.6,24.2C154,24.2,113.8,0,113.8,0l24.3,38.2
			c-14.8,11.8-24.3,30-24.3,50.3c0,6.6,1,13,2.9,19.1c4.9-37.9,30.9-66.8,62.2-66.8c22.2,0,41.7,14.5,53,36.4
			c11.2-21.9,30.8-36.4,53-36.4c32.1,0,58.6,30.3,62.6,69.5c2.4-6.8,3.8-14.1,3.8-21.8C351.2,68.2,341.7,50,326.9,38.2z"/>
	</g>
	<g>
		<path fill="#20C4F4" d="M247.2,101.8c-0.6,15.3-6.1,29.4-15,40.8c13.2,16.9,33.8,27.8,56.8,27.8c0.1,0,0.2,0,0.2,0v-29.8
			c-0.1,0-0.2,0-0.2,0C266.9,140.6,248.8,123.5,247.2,101.8z"/>
		<path fill="#20C4F4" d="M217.2,95.9c0.1,1,0.1,2,0.1,3h29.8c0-1,0-2,0.1-3c1.6-21.6,19.7-38.8,41.8-38.8c0.1,0,0.2,0,0.2,0V27.2
			c-0.1,0-0.2,0-0.2,0c-23.1,0-43.7,10.9-56.8,27.8c-13.2-16.9-33.7-27.8-56.8-27.8c-0.1,0-0.2,0-0.2,0v29.8c0.1,0,0.2,0,0.2,0
			C197.5,57.1,215.6,74.2,217.2,95.9z"/>
		<path fill="#20C4F4" d="M175.4,140.6c-0.1,0-0.2,0-0.2,0v29.8c0.1,0,0.2,0,0.2,0c23.1,0,43.7-10.9,56.8-27.8
			c-8.9-11.4-14.4-25.5-15-40.8C215.6,123.5,197.5,140.6,175.4,140.6z"/>
	</g>
	<g>
		<path fill="#009BDF" d="M15.4,56.2h42.3V121c0,6.9-1.6,12.1-4.8,15.6c-3.2,3.5-7,5.2-11.5,5.2c-9.1,0-17.8-4.4-26.2-13.1l-12,27.1
			c11.6,9.9,24.8,14.8,39.6,14.8c13.7,0,25-4.2,33.8-12.7c8.8-8.4,13.2-21.2,13.2-38.2V26.6H15.4V56.2z"/>
		<g>
			<path fill="#009BDF" d="M217.3,98.9c0,1,0,2-0.1,3c0.6,15.3,6.1,29.4,15,40.8c8.9-11.4,14.4-25.5,15-40.8c-0.1-1-0.1-2-0.1-3
				H217.3z"/>
			<path fill="#009BDF" d="M289.3,27.2v29.8c23,0.1,41.7,18.8,41.7,41.8c0,23-18.7,41.6-41.7,41.8v29.8
				c39.5-0.1,71.7-32.2,71.7-71.6C361,59.5,328.8,27.4,289.3,27.2z"/>
			<path fill="#009BDF" d="M103.4,98.9c0,39.4,32.1,71.5,71.7,71.6v-29.8c-23-0.1-41.7-18.8-41.7-41.8c0-22.9,18.7-41.6,41.7-41.8
				V27.2C135.6,27.4,103.4,59.5,103.4,98.9z"/>
		</g>
		<circle fill="#009BDF" cx="175.1" cy="99.2" r="15"/>
		<circle fill="#009BDF" cx="289.3" cy="99.2" r="15"/>
		<path fill="#009BDF" d="M374.1,170V27.2h31.9v114.4h60.9V170H374.1z"/>
		<path fill="#009BDF" d="M574.9,170l-13.3-28.6h-59.8L488.5,170h-33.9l61.7-142.7h30.8L608.8,170H574.9z M531.8,69.7l-18,43.7h35.7
			L531.8,69.7z"/>
	</g>
</g>
</svg>
