<?xml version="1.0" encoding="utf-8"?>
<!-- Generator: Adobe Illustrator 18.1.0, SVG Export Plug-In . SVG Version: 6.00 Build 0)  -->
<svg version="1.1" id="Layer_1" xmlns="http://www.w3.org/2000/svg" xmlns:xlink="http://www.w3.org/1999/xlink" x="0px" y="0px"
	 viewBox="0 0 259.3 171.8" enable-background="new 0 0 259.3 171.8" xml:space="preserve">
<g>
	<g>
		<path fill="#00B262" d="M225.2,125.4c-8.8,11.4-22.5,18.8-38,18.8c-25.6,0-46.5-20.1-47.9-45.3c-3.2-0.1-6.4-0.2-9.6-0.2
			c-2.8,0-5.5,0.1-8.2,0.2c-1.3,25.3-22.3,45.4-47.9,45.4c-15.8,0-29.8-7.6-38.5-19.4c-17.8,12.6-28.5,28.8-28.5,46.4
			c0,0.2,0,0.4,0,0.6h246.2c0-0.2,0-0.4,0-0.6C252.8,153.8,242.5,137.9,225.2,125.4z"/>
	</g>
	<g>
		<path fill="#00B262" d="M225.1,38.5L249.5,0c0,0-37.6,24.4-118.5,24.4C50.9,24.4,10.4,0,10.4,0l24.4,38.5
			C20,50.4,10.4,68.7,10.4,89.2c0,6.7,1,13.1,2.9,19.2C18.2,70.3,44.4,41.2,76,41.2c22.4,0,42,14.6,53.3,36.6
			c11.3-22,31-36.6,53.3-36.6c32.3,0,59,30.5,63,70c2.5-6.8,3.8-14.2,3.8-21.9C249.5,68.7,239.9,50.4,225.1,38.5z"/>
	</g>
	<g>
		<path fill="#80C342" d="M144.8,102.6c-0.6,15.4-6.2,29.7-15.1,41.1c13.3,17,34,28,57.2,28c0.1,0,0.2,0,0.2,0v-30.1
			c-0.1,0-0.2,0-0.2,0C164.6,141.6,146.4,124.4,144.8,102.6z"/>
		<path fill="#80C342" d="M114.6,96.5c0.1,1,0.1,2,0.1,3h30c0-1,0-2,0.1-3c1.6-21.8,19.9-39.1,42.1-39.1c0.1,0,0.2,0,0.2,0V27.4
			c-0.1,0-0.2,0-0.2,0c-23.3,0-44,11-57.2,28c-13.3-17-34-28-57.2-28c-0.1,0-0.2,0-0.2,0v30.1c0.1,0,0.2,0,0.2,0
			C94.7,57.5,113,74.7,114.6,96.5z"/>
		<path fill="#80C342" d="M72.4,141.6c-0.1,0-0.2,0-0.2,0v30.1c0.1,0,0.2,0,0.2,0c23.3,0,44-11,57.2-28
			c-8.9-11.5-14.5-25.7-15.1-41.1C113,124.4,94.7,141.6,72.4,141.6z"/>
	</g>
	<g>
		<path display="none" fill="#00B262" d="M-88.6,56.6h42.6v65.2c0,7-1.6,12.2-4.8,15.7c-3.2,3.5-7.1,5.2-11.6,5.2
			c-9.2,0-18-4.4-26.4-13.2l-12.1,27.3c11.7,9.9,24.9,14.9,39.9,14.9c13.8,0,25.2-4.2,34-12.8c8.8-8.5,13.3-21.3,13.3-38.5V26.8
			h-74.9V56.6z"/>
		<g>
			<path fill="#00B262" d="M114.7,99.6c0,1,0,2-0.1,3c0.6,15.4,6.2,29.6,15.1,41.1c8.9-11.5,14.5-25.7,15.1-41.1c-0.1-1-0.1-2-0.1-3
				H114.7z"/>
			<path fill="#00B262" d="M187.2,27.4v30.1c23.2,0.1,42,18.9,42,42.1c0,23.1-18.8,41.9-42,42.1v30.1c39.8-0.1,72.2-32.4,72.2-72.1
				C259.3,59.9,227,27.6,187.2,27.4z"/>
			<path fill="#00B262" d="M0,99.6c0,39.7,32.4,72,72.2,72.1v-30.1c-23.2-0.1-42-18.9-42-42.1c0-23.1,18.8-41.9,42-42.1V27.4
				C32.4,27.6,0,59.9,0,99.6z"/>
		</g>
		<circle fill="#00B262" cx="72.2" cy="99.9" r="15.1"/>
		<circle fill="#00B262" cx="187.2" cy="99.9" r="15.1"/>
		<path display="none" fill="#00B262" d="M272.6,171.2V27.4h32.1v115.2h61.3v28.6H272.6z"/>
		<path display="none" fill="#00B262" d="M474.8,171.2l-13.4-28.8h-60.3l-13.4,28.8h-34.1l62.1-143.7h31.1l62.1,143.7H474.8z
			 M431.4,70.2l-18.1,44h36L431.4,70.2z"/>
	</g>
</g>
</svg>
